<svg xmlns="http://www.w3.org/2000/svg" viewBox="0 0 90.92 76.96"><title>logo</title><path d="M34.39,76.31,19.71,31.39q-.23-14-.44-28L24.6.71,40.17,47.4,38,75Z" style="fill:#b3b3b3;stroke:#b3b3b3;stroke-miterlimit:10"/><path d="M70,76.31,53.51,45.18Q53.33,34.56,53.14,24l4.37-1.91L74,55l.24,17Z" style="fill:#b3b3b3;stroke:#b3b3b3;stroke-linecap:round;stroke-linejoin:round"/><path d="M24.6.71A17.08,17.08,0,0,0,6.81,13.6Q3.71,40.28.59,67A8.83,8.83,0,0,0,1.92,73.2c2.18,2.94,6.2,3.1,6.67,3.11s4.33,0,6.67-2.67A8,8,0,0,0,17,69.19Z" style="fill:#fff;stroke:#fff;stroke-miterlimit:10"/><path d="M34.39,76.31a17.38,17.38,0,0,0,12.89-3.56,17,17,0,0,0,5.79-9.34l4.44-41.36A18.18,18.18,0,0,0,38.83,35.39Z" style="fill:#fff;stroke:#fff;stroke-linecap:round;stroke-miterlimit:10"/><path d="M73.08,46.51a8.9,8.9,0,0,1,17.34-.44c0,5.49-.37,12.86-1.87,17.65-.16.52-.3.89-.35,1a19,19,0,0,1-6.67,8.45A18.53,18.53,0,0,1,70,76.31Q71.52,61.41,73.08,46.51Z" style="fill:#fff;stroke:#fff;stroke-miterlimit:10"/></svg>